<svg width="143" height="34" viewBox="0 0 143 34" fill="none" xmlns="http://www.w3.org/2000/svg">
<path d="M0 17C0 7.61116 7.61116 0 17 0C26.3888 0 34 7.61116 34 17C34 26.3888 26.3888 34 17 34C7.61116 34 0 26.3888 0 17Z" fill="#00C3B3"/>
<g clip-path="url(#clip0_32_301)">
<path d="M12.7619 24.9416L8.00001 26L9.05841 21.2381C8.36153 19.9343 7.99793 18.4784 8.00001 17C8.00001 12.0293 12.0293 8 17 8C21.9707 8 26 12.0293 26 17C26 21.9707 21.9707 26 17 26C15.5216 26.0021 14.0657 25.6385 12.7619 24.9416ZM12.5 17C12.5 18.1935 12.9741 19.3381 13.818 20.182C14.6619 21.0259 15.8065 21.5 17 21.5C18.1935 21.5 19.3381 21.0259 20.182 20.182C21.0259 19.3381 21.5 18.1935 21.5 17H19.7C19.7 17.7161 19.4155 18.4028 18.9092 18.9092C18.4028 19.4155 17.7161 19.7 17 19.7C16.2839 19.7 15.5972 19.4155 15.0908 18.9092C14.5845 18.4028 14.3 17.7161 14.3 17H12.5Z" fill="white"/>
</g>
<path d="M47.517 26V8.54545H54.5057C55.7898 8.54545 56.8608 8.7358 57.7188 9.11648C58.5767 9.49716 59.2216 10.0256 59.6534 10.7017C60.0852 11.3722 60.3011 12.1449 60.3011 13.0199C60.3011 13.7017 60.1648 14.3011 59.892 14.8182C59.6193 15.3295 59.2443 15.75 58.767 16.0795C58.2955 16.4034 57.7557 16.6335 57.1477 16.7699V16.9403C57.8125 16.9687 58.4347 17.1562 59.0142 17.5028C59.5994 17.8494 60.0739 18.3352 60.4375 18.9602C60.8011 19.5795 60.983 20.3182 60.983 21.1761C60.983 22.1023 60.7528 22.929 60.2926 23.6562C59.8381 24.3778 59.1648 24.9489 58.2727 25.3693C57.3807 25.7898 56.2813 26 54.9744 26H47.517ZM51.2074 22.983H54.2159C55.2443 22.983 55.9943 22.7869 56.4659 22.3949C56.9375 21.9972 57.1733 21.4687 57.1733 20.8097C57.1733 20.3267 57.0568 19.9006 56.8239 19.5312C56.5909 19.1619 56.2585 18.8722 55.8267 18.6619C55.4006 18.4517 54.892 18.3466 54.3011 18.3466H51.2074V22.983ZM51.2074 15.8494H53.9432C54.4489 15.8494 54.8977 15.7614 55.2898 15.5852C55.6875 15.4034 56 15.1477 56.2273 14.8182C56.4602 14.4886 56.5767 14.0938 56.5767 13.6335C56.5767 13.0028 56.3523 12.4943 55.9034 12.108C55.4602 11.7216 54.8295 11.5284 54.0114 11.5284H51.2074V15.8494ZM69.282 26.2557C67.9354 26.2557 66.7763 25.983 65.8047 25.4375C64.8388 24.8864 64.0945 24.108 63.5717 23.1023C63.049 22.0909 62.7876 20.8949 62.7876 19.5142C62.7876 18.1676 63.049 16.9858 63.5717 15.9688C64.0945 14.9517 64.8303 14.1591 65.7791 13.5909C66.7337 13.0227 67.853 12.7386 69.1371 12.7386C70.0007 12.7386 70.8047 12.8778 71.549 13.1562C72.299 13.429 72.9524 13.8409 73.5092 14.392C74.0717 14.9432 74.5092 15.6364 74.8217 16.4716C75.1342 17.3011 75.2905 18.2727 75.2905 19.3864V20.3835H64.2365V18.1335H71.8729C71.8729 17.6108 71.7592 17.1477 71.532 16.7443C71.3047 16.3409 70.9893 16.0256 70.5859 15.7983C70.1882 15.5653 69.7251 15.4489 69.1967 15.4489C68.6456 15.4489 68.157 15.5767 67.7308 15.8324C67.3104 16.0824 66.9808 16.4205 66.7422 16.8466C66.5036 17.267 66.3814 17.7358 66.3757 18.2528V20.392C66.3757 21.0398 66.495 21.5994 66.7337 22.071C66.978 22.5426 67.3217 22.9062 67.7649 23.1619C68.2081 23.4176 68.7337 23.5455 69.3416 23.5455C69.745 23.5455 70.1143 23.4886 70.4496 23.375C70.7848 23.2614 71.0717 23.0909 71.3104 22.8636C71.549 22.6364 71.7308 22.358 71.8558 22.0284L75.2138 22.25C75.0433 23.0568 74.6939 23.7614 74.1655 24.3636C73.6428 24.9602 72.9666 25.4261 72.1371 25.7614C71.3132 26.0909 70.3615 26.2557 69.282 26.2557ZM99.3224 17.2727C99.3224 19.1761 98.9616 20.7955 98.2401 22.1307C97.5241 23.4659 96.5469 24.4858 95.3082 25.1903C94.0753 25.8892 92.6889 26.2386 91.1491 26.2386C89.598 26.2386 88.206 25.8864 86.973 25.1818C85.7401 24.4773 84.7656 23.4574 84.0497 22.1222C83.3338 20.7869 82.9759 19.1705 82.9759 17.2727C82.9759 15.3693 83.3338 13.75 84.0497 12.4148C84.7656 11.0795 85.7401 10.0625 86.973 9.36364C88.206 8.65909 89.598 8.30682 91.1491 8.30682C92.6889 8.30682 94.0753 8.65909 95.3082 9.36364C96.5469 10.0625 97.5241 11.0795 98.2401 12.4148C98.9616 13.75 99.3224 15.3693 99.3224 17.2727ZM95.581 17.2727C95.581 16.0398 95.3963 15 95.027 14.1534C94.6634 13.3068 94.1491 12.6648 93.4844 12.2273C92.8196 11.7898 92.0412 11.571 91.1491 11.571C90.2571 11.571 89.4787 11.7898 88.8139 12.2273C88.1491 12.6648 87.6321 13.3068 87.2628 14.1534C86.8991 15 86.7173 16.0398 86.7173 17.2727C86.7173 18.5057 86.8991 19.5455 87.2628 20.392C87.6321 21.2386 88.1491 21.8807 88.8139 22.3182C89.4787 22.7557 90.2571 22.9744 91.1491 22.9744C92.0412 22.9744 92.8196 22.7557 93.4844 22.3182C94.1491 21.8807 94.6634 21.2386 95.027 20.392C95.3963 19.5455 95.581 18.5057 95.581 17.2727ZM105.278 22.233L105.286 17.8778H105.815L110.008 12.9091H114.175L108.542 19.4886H107.681L105.278 22.233ZM101.988 26V8.54545H105.619V26H101.988ZM110.17 26L106.317 20.2983L108.738 17.733L114.423 26H110.17ZM119.69 26.2472C118.854 26.2472 118.11 26.1023 117.457 25.8125C116.803 25.517 116.286 25.0824 115.906 24.5085C115.531 23.929 115.343 23.2074 115.343 22.3438C115.343 21.6165 115.477 21.0057 115.744 20.5114C116.011 20.017 116.374 19.6193 116.835 19.3182C117.295 19.017 117.817 18.7898 118.403 18.6364C118.994 18.483 119.613 18.375 120.261 18.3125C121.022 18.233 121.636 18.1591 122.102 18.0909C122.567 18.017 122.906 17.9091 123.116 17.767C123.326 17.625 123.431 17.4148 123.431 17.1364V17.0852C123.431 16.5455 123.261 16.1278 122.92 15.8324C122.585 15.5369 122.107 15.3892 121.488 15.3892C120.835 15.3892 120.315 15.5341 119.928 15.8239C119.542 16.108 119.286 16.4659 119.161 16.8977L115.803 16.625C115.974 15.8295 116.309 15.142 116.809 14.5625C117.309 13.9773 117.954 13.5284 118.744 13.2159C119.539 12.8977 120.46 12.7386 121.505 12.7386C122.232 12.7386 122.928 12.8239 123.593 12.9943C124.263 13.1648 124.857 13.429 125.374 13.7869C125.897 14.1449 126.309 14.6051 126.61 15.1676C126.911 15.7244 127.062 16.392 127.062 17.1705V26H123.619V24.1847H123.516C123.306 24.5938 123.025 24.9545 122.673 25.267C122.32 25.5739 121.897 25.8153 121.403 25.9915C120.908 26.1619 120.337 26.2472 119.69 26.2472ZM120.729 23.7415C121.263 23.7415 121.735 23.6364 122.144 23.4261C122.553 23.2102 122.874 22.9205 123.107 22.5568C123.34 22.1932 123.457 21.7812 123.457 21.321V19.9318C123.343 20.0057 123.187 20.0739 122.988 20.1364C122.795 20.1932 122.576 20.2472 122.332 20.2983C122.087 20.3437 121.843 20.3864 121.599 20.4261C121.354 20.4602 121.133 20.4915 120.934 20.5199C120.508 20.5824 120.136 20.6818 119.817 20.8182C119.499 20.9545 119.252 21.1392 119.076 21.3722C118.9 21.5994 118.812 21.8835 118.812 22.2244C118.812 22.7188 118.991 23.0966 119.349 23.358C119.712 23.6136 120.173 23.7415 120.729 23.7415ZM131.651 30.9091C131.191 30.9091 130.759 30.8722 130.356 30.7983C129.958 30.7301 129.629 30.642 129.367 30.5341L130.185 27.8239C130.612 27.9545 130.995 28.0256 131.336 28.0369C131.683 28.0483 131.981 27.9688 132.231 27.7983C132.487 27.6278 132.694 27.3381 132.853 26.929L133.066 26.375L128.37 12.9091H132.188L134.898 22.5227H135.035L137.771 12.9091H141.614L136.526 27.4148C136.282 28.1193 135.95 28.733 135.529 29.2557C135.114 29.7841 134.589 30.1903 133.952 30.4744C133.316 30.7642 132.549 30.9091 131.651 30.9091Z" fill="black"/>
<defs>
<clipPath id="clip0_32_301">
<rect width="18" height="18" fill="white" transform="translate(8 8)"/>
</clipPath>
</defs>
</svg>
