<svg width="13" height="16" viewBox="0 0 13 16" fill="currentColor" xmlns="http://www.w3.org/2000/svg" class="{{ $active ? 'text-primary' : 'text-[#A1AAB2]' }}">
<path fill-rule="evenodd" clip-rule="evenodd" d="M0.544143 0.551529C-5.53472e-08 1.10306 0 1.98965 0 3.76471V12.2353C0 14.0104 -5.53472e-08 14.8969 0.544143 15.4485C1.08829 16 1.963 16 3.71429 16H9.28571C11.037 16 11.9117 16 12.4559 15.4485C13 14.8969 13 14.0104 13 12.2353V3.76471C13 1.98965 13 1.10306 12.4559 0.551529C11.9117 -5.60985e-08 11.037 0 9.28571 0H3.71429C1.963 0 1.08829 -5.60985e-08 0.544143 0.551529ZM3.71429 3.76471C3.46801 3.76471 3.23183 3.86387 3.05769 4.04037C2.88355 4.21688 2.78571 4.45627 2.78571 4.70588C2.78571 4.9555 2.88355 5.19489 3.05769 5.37139C3.23183 5.5479 3.46801 5.64706 3.71429 5.64706H9.28571C9.53199 5.64706 9.76817 5.5479 9.94231 5.37139C10.1165 5.19489 10.2143 4.9555 10.2143 4.70588C10.2143 4.45627 10.1165 4.21688 9.94231 4.04037C9.76817 3.86387 9.53199 3.76471 9.28571 3.76471H3.71429ZM3.71429 7.52941C3.46801 7.52941 3.23183 7.62857 3.05769 7.80508C2.88355 7.98158 2.78571 8.22097 2.78571 8.47059C2.78571 8.7202 2.88355 8.9596 3.05769 9.1361C3.23183 9.3126 3.46801 9.41177 3.71429 9.41177H9.28571C9.53199 9.41177 9.76817 9.3126 9.94231 9.1361C10.1165 8.9596 10.2143 8.7202 10.2143 8.47059C10.2143 8.22097 10.1165 7.98158 9.94231 7.80508C9.76817 7.62857 9.53199 7.52941 9.28571 7.52941H3.71429ZM3.71429 11.2941C3.46801 11.2941 3.23183 11.3933 3.05769 11.5698C2.88355 11.7463 2.78571 11.9857 2.78571 12.2353C2.78571 12.4849 2.88355 12.7243 3.05769 12.9008C3.23183 13.0773 3.46801 13.1765 3.71429 13.1765H7.42857C7.67484 13.1765 7.91103 13.0773 8.08517 12.9008C8.25931 12.7243 8.35714 12.4849 8.35714 12.2353C8.35714 11.9857 8.25931 11.7463 8.08517 11.5698C7.91103 11.3933 7.67484 11.2941 7.42857 11.2941H3.71429Z"/>
</svg>
