<svg width="16" height="16" viewBox="0 0 16 16" fill="currentColor" xmlns="http://www.w3.org/2000/svg" class="{{ $active ? 'text-primary' : 'text-[#A1AAB2]' }}">
<path fill-rule="evenodd" clip-rule="evenodd" d="M3.24555 4C3.24555 2.93913 3.67298 1.92172 4.4338 1.17157C5.19463 0.421427 6.22653 0 7.3025 0C8.37846 0 9.41036 0.421427 10.1712 1.17157C10.932 1.92172 11.3594 2.93913 11.3594 4C11.3594 5.06087 10.932 6.07828 10.1712 6.82843C9.41036 7.57857 8.37846 8 7.3025 8C6.22653 8 5.19463 7.57857 4.4338 6.82843C3.67298 6.07828 3.24555 5.06087 3.24555 4ZM2.28974 10.1376C3.59039 9.3552 5.35922 8.8 7.3025 8.8C7.66546 8.8 8.02139 8.81867 8.37028 8.856C8.50966 8.87074 8.64278 8.92083 8.75668 9.00139C8.87058 9.08194 8.96137 9.19022 9.0202 9.31566C9.07903 9.4411 9.1039 9.57943 9.09239 9.71717C9.08087 9.85491 9.03336 9.98735 8.95448 10.1016C8.40493 10.897 8.11193 11.8376 8.11388 12.8C8.11388 13.536 8.28184 14.232 8.58043 14.8536C8.63861 14.9747 8.66501 15.1083 8.6572 15.242C8.64939 15.3758 8.60763 15.5055 8.53575 15.6192C8.46387 15.7329 8.36417 15.827 8.2458 15.8929C8.12743 15.9587 7.99419 15.9942 7.8583 15.996C7.67438 15.9987 7.48912 16 7.3025 16C5.49391 16 3.78513 15.888 2.50476 15.5536C1.86782 15.3872 1.2682 15.1488 0.813823 14.7888C0.332669 14.408 0 13.876 0 13.2C0 12.5704 0.290477 11.9816 0.684812 11.4888C1.08564 10.9888 1.63982 10.5288 2.28974 10.1368V10.1376ZM12.5765 11.2C12.2537 11.2 11.9442 11.3264 11.7159 11.5515C11.4877 11.7765 11.3594 12.0817 11.3594 12.4C11.3594 12.7183 11.4877 13.0235 11.7159 13.2485C11.9442 13.4736 12.2537 13.6 12.5765 13.6C12.8993 13.6 13.2089 13.4736 13.4371 13.2485C13.6654 13.0235 13.7936 12.7183 13.7936 12.4C13.7936 12.0817 13.6654 11.7765 13.4371 11.5515C13.2089 11.3264 12.8993 11.2 12.5765 11.2ZM9.73666 12.4C9.73698 11.974 9.83589 11.5537 10.0259 11.171C10.2158 10.7884 10.4918 10.4536 10.8329 10.192C11.1739 9.93044 11.571 9.74904 11.9939 9.66164C12.4168 9.57424 12.8543 9.58313 13.2732 9.68763C13.692 9.79213 14.0812 9.9895 14.411 10.2647C14.7408 10.5399 15.0026 10.8857 15.1765 11.2757C15.3503 11.6657 15.4315 12.0897 15.4141 12.5153C15.3966 12.941 15.2808 13.3571 15.0756 13.732L15.7523 14.4C15.8298 14.4738 15.8916 14.5621 15.9341 14.6597C15.9767 14.7573 15.999 14.8623 16 14.9685C16.0009 15.0747 15.9804 15.18 15.9396 15.2784C15.8988 15.3767 15.8385 15.466 15.7624 15.5411C15.6862 15.6162 15.5956 15.6756 15.4959 15.7159C15.3961 15.7561 15.2893 15.7763 15.1816 15.7754C15.0738 15.7745 14.9674 15.7524 14.8684 15.7105C14.7694 15.6686 14.6798 15.6076 14.605 15.5312L13.9275 14.8632C13.4949 15.0939 13.0089 15.2098 12.5172 15.1997C12.0255 15.1896 11.5448 15.0537 11.1224 14.8054C10.6999 14.5571 10.3501 14.2049 10.1072 13.7832C9.86428 13.3616 9.7366 12.8849 9.73666 12.4Z" fill="#A1AAB2"/>
</svg>
