<svg width="19" height="20" viewBox="0 0 19 20" fill="none" xmlns="http://www.w3.org/2000/svg">
<path d="M9.89845 0.113281C9.73439 0.0390625 9.55861 0 9.37502 0C9.19142 0 9.01564 0.0390625 8.85158 0.113281L1.49611 3.23438C0.636736 3.59766 -0.00388848 4.44531 1.77675e-05 5.46875C0.019549 9.34375 1.6133 16.4336 8.34377 19.6562C8.99611 19.9688 9.75392 19.9688 10.4063 19.6562C17.1367 16.4336 18.7305 9.34375 18.75 5.46875C18.7539 4.44531 18.1133 3.59766 17.2539 3.23438L9.89845 0.113281ZM5.00002 8.64453C5.00002 7.32422 6.07033 6.25 7.39455 6.25C8.02736 6.25 8.63674 6.50391 9.08596 6.94922L9.37502 7.23828L9.66408 6.94922C10.1133 6.5 10.7227 6.25 11.3555 6.25C12.6758 6.25 13.75 7.32031 13.75 8.64453C13.75 9.27734 13.4961 9.88672 13.0508 10.3359L9.82033 13.5664C9.57814 13.8086 9.17971 13.8086 8.93752 13.5664L5.70705 10.3359C5.25783 9.88672 5.00783 9.27734 5.00783 8.64453H5.00002Z" fill="#2E6F6D"/>
</svg>
