<svg width="35" height="35" viewBox="0 0 35 35" fill="none" xmlns="http://www.w3.org/2000/svg">
<path d="M23.3333 2.91669C23.6905 2.91673 24.0353 3.04787 24.3022 3.28523C24.5691 3.52259 24.7397 3.84965 24.7815 4.2044L24.7917 4.37502V5.83335H26.25C27.3659 5.83329 28.4397 6.25966 29.2516 7.02523C30.0636 7.79079 30.5522 8.83768 30.6177 9.95169L30.625 10.2084V27.7084C30.6251 28.8243 30.1987 29.8981 29.4331 30.71C28.6676 31.5219 27.6207 32.0106 26.5067 32.0761L26.25 32.0834H8.75C7.63407 32.0834 6.56029 31.657 5.74837 30.8915C4.93645 30.1259 4.44776 29.079 4.38229 27.965L4.375 27.7084V10.2084C4.37494 9.09242 4.80131 8.01864 5.56687 7.20672C6.33244 6.3948 7.37932 5.90611 8.49333 5.84065L8.75 5.83335H10.2083V4.37502C10.2087 4.00332 10.3511 3.64581 10.6062 3.37552C10.8614 3.10524 11.2101 2.94259 11.5812 2.92081C11.9523 2.89903 12.3176 3.01975 12.6027 3.25832C12.8877 3.49689 13.0709 3.8353 13.1148 4.2044L13.125 4.37502V5.83335H21.875V4.37502C21.875 3.98825 22.0286 3.61731 22.3021 3.34382C22.5756 3.07033 22.9466 2.91669 23.3333 2.91669ZM27.7083 13.125H7.29167V27.1615C7.29167 28.1896 7.85458 29.0369 8.57937 29.1536L8.75 29.1667H26.25C26.9981 29.1667 27.615 28.3938 27.6981 27.3948L27.7083 27.1615V13.125Z" fill="#A1AAB2"/>
<path d="M17.5 17.5C17.8572 17.5 18.202 17.6312 18.4689 17.8685C18.7358 18.1059 18.9063 18.433 18.9481 18.7877L18.9583 18.9583V23.3333C18.9579 23.705 18.8156 24.0625 18.5604 24.3328C18.3053 24.6031 17.9565 24.7658 17.5855 24.7875C17.2144 24.8093 16.849 24.6886 16.564 24.45C16.279 24.2115 16.0958 23.8731 16.0519 23.504L16.0417 23.3333V20.4167C15.67 20.4163 15.3125 20.2739 15.0422 20.0188C14.7719 19.7636 14.6093 19.4149 14.5875 19.0438C14.5657 18.6727 14.6864 18.3074 14.925 18.0223C15.1636 17.7373 15.502 17.5541 15.8711 17.5102L16.0417 17.5H17.5Z" fill="#A1AAB2"/>
</svg>
