<svg width="35" height="35" viewBox="0 0 35 35" fill="none" xmlns="http://www.w3.org/2000/svg">
<path d="M29.1667 5.83334H5.83341C4.22925 5.83334 2.93133 7.14584 2.93133 8.75001L2.91675 26.25C2.91675 27.8542 4.22925 29.1667 5.83341 29.1667H29.1667C30.7709 29.1667 32.0834 27.8542 32.0834 26.25V8.75001C32.0834 7.14584 30.7709 5.83334 29.1667 5.83334ZM28.5834 12.0313L18.273 18.4771C17.8063 18.7688 17.1938 18.7688 16.7272 18.4771L6.41675 12.0313C6.27052 11.9492 6.14246 11.8383 6.04034 11.7053C5.93821 11.5722 5.86413 11.4199 5.82259 11.2574C5.78104 11.095 5.7729 10.9257 5.79864 10.76C5.82439 10.5943 5.88349 10.4356 5.97237 10.2934C6.06125 10.1512 6.17805 10.0285 6.31572 9.93271C6.45339 9.83696 6.60906 9.77013 6.7733 9.73628C6.93755 9.70243 7.10695 9.70225 7.27127 9.73577C7.43558 9.76928 7.59138 9.83579 7.72925 9.93126L17.5001 16.0417L27.2709 9.93126C27.4088 9.83579 27.5646 9.76928 27.7289 9.73577C27.8932 9.70225 28.0626 9.70243 28.2269 9.73628C28.3911 9.77013 28.5468 9.83696 28.6844 9.93271C28.8221 10.0285 28.9389 10.1512 29.0278 10.2934C29.1167 10.4356 29.1758 10.5943 29.2015 10.76C29.2273 10.9257 29.2191 11.095 29.1776 11.2574C29.136 11.4199 29.062 11.5722 28.9598 11.7053C28.8577 11.8383 28.7296 11.9492 28.5834 12.0313Z" fill="#A1AAB2"/>
</svg>
