<svg width="35" height="35" viewBox="0 0 35 35" fill="none" xmlns="http://www.w3.org/2000/svg">
<g clip-path="url(#clip0_32_555)">
<path d="M32.8344 0.350008H27.1396C27.0021 0.348665 26.8674 0.388692 26.753 0.464892C26.6386 0.541091 26.5497 0.64994 26.4979 0.7773C26.4426 0.905089 26.4267 1.04648 26.4521 1.18338C26.4776 1.32028 26.5433 1.44648 26.6409 1.54584L27.965 2.87001C28.1109 3.01001 28.1109 3.24188 27.965 3.38188L25.0177 6.38605C24.9539 6.43352 24.8764 6.45915 24.7968 6.45915C24.7172 6.45915 24.6397 6.43352 24.5759 6.38605C22.7259 5.21049 20.5265 4.71019 18.3501 4.96982C16.1736 5.22946 14.1537 6.23308 12.6321 7.81084C6.79878 6.86584 1.50357 11.3561 1.48315 17.2638C1.48603 19.3091 2.14835 21.2989 3.37179 22.938C4.59523 24.577 6.31457 25.7779 8.27461 26.3623C8.42628 26.4061 8.52982 26.5461 8.52982 26.7036V27.8279C8.52982 27.9223 8.49233 28.0128 8.4256 28.0795C8.35887 28.1463 8.26836 28.1838 8.17399 28.1838H7.5469C7.29549 28.1452 7.0387 28.1614 6.79415 28.2313C6.54959 28.3013 6.32304 28.4232 6.13002 28.5889C5.93701 28.7545 5.78208 28.96 5.67587 29.1911C5.56966 29.4222 5.51467 29.6736 5.51467 29.9279C5.51467 30.1823 5.56966 30.4336 5.67587 30.6648C5.78208 30.8959 5.93701 31.1013 6.13002 31.267C6.32304 31.4326 6.54959 31.5546 6.79415 31.6245C7.0387 31.6944 7.29549 31.7107 7.5469 31.6721H8.2469C8.44232 31.6721 8.60128 31.8325 8.60128 32.0279V32.7265C8.58147 32.9695 8.61224 33.2139 8.69163 33.4445C8.77103 33.675 8.89733 33.8866 9.06258 34.0658C9.22783 34.2451 9.42844 34.3882 9.65174 34.486C9.87505 34.5839 10.1162 34.6344 10.36 34.6344C10.6038 34.6344 10.845 34.5839 11.0683 34.486C11.2916 34.3882 11.4922 34.2451 11.6575 34.0658C11.8227 33.8866 11.949 33.675 12.0284 33.4445C12.1078 33.2139 12.1386 32.9695 12.1188 32.7265V32.0279C12.1171 31.9447 12.1446 31.8636 12.1966 31.7985C12.2485 31.7335 12.3216 31.6888 12.4032 31.6721H13.1148C13.5549 31.634 13.9646 31.4323 14.2632 31.1069C14.5617 30.7814 14.7274 30.3557 14.7274 29.9141C14.7274 29.4724 14.5617 29.0468 14.2632 28.7213C13.9646 28.3958 13.5549 28.1941 13.1148 28.156H12.4032C12.3099 28.1524 12.2215 28.1138 12.1555 28.0478C12.0896 27.9819 12.0509 27.8934 12.0473 27.8002V26.9879C12.0502 26.903 12.0834 26.8219 12.1409 26.7593C12.1984 26.6967 12.2765 26.6567 12.3609 26.6467C14.3996 26.3398 16.286 25.3864 17.7421 23.9269C23.5667 24.799 28.8225 20.3335 28.9042 14.4448C28.9261 12.6361 28.4324 10.8586 27.4809 9.32022C27.4322 9.25963 27.4057 9.18427 27.4057 9.10657C27.4057 9.02888 27.4322 8.95351 27.4809 8.89293L30.485 5.88876C30.5176 5.85311 30.5573 5.8246 30.6015 5.80502C30.6456 5.78544 30.6934 5.77523 30.7417 5.77501C30.8379 5.77938 30.9298 5.81876 30.9969 5.88876L32.3065 7.19834C32.406 7.2961 32.532 7.36247 32.6689 7.3892C32.8057 7.41594 32.9475 7.40187 33.0764 7.34873C33.2054 7.2956 33.3159 7.20575 33.3942 7.09034C33.4725 6.97493 33.5152 6.83905 33.5169 6.69959V1.00626C33.5056 0.831534 33.4293 0.667374 33.303 0.546161C33.1766 0.424947 33.0094 0.355481 32.8344 0.351467M20.02 20.4123C20.4527 19.1829 20.6291 17.878 20.5386 16.5779C20.4481 15.2777 20.0924 14.0099 19.4936 12.8523C19.3876 12.6439 19.2413 12.4586 19.0632 12.3072C18.8852 12.1557 18.6788 12.0411 18.4561 11.9699C18.2334 11.8987 17.9988 11.8725 17.7659 11.8926C17.533 11.9127 17.3064 11.9789 17.0992 12.0872C16.892 12.1955 16.7084 12.3438 16.5589 12.5236C16.4095 12.7034 16.2972 12.911 16.2285 13.1345C16.1599 13.358 16.1363 13.5929 16.159 13.8255C16.1817 14.0582 16.2504 14.2841 16.3611 14.49C16.8277 15.365 17.0611 16.345 17.045 17.3367C17.0392 21.9508 12.0415 24.8296 8.04711 22.5181C4.05274 20.2067 4.06003 14.439 8.05878 12.1348C8.82258 11.6951 9.67415 11.4296 10.5525 11.3575C10.1749 12.345 9.96779 13.3894 9.94003 14.4463C9.93845 16.3216 10.4932 18.1552 11.534 19.7152C11.8048 20.0752 12.203 20.3179 12.647 20.3938C13.091 20.4697 13.5472 20.3728 13.9221 20.1232C14.297 19.8736 14.5623 19.49 14.6635 19.0511C14.7648 18.6122 14.6944 18.1512 14.4667 17.7625C11.9088 13.9227 14.4667 8.75292 19.0707 8.45688C23.6746 8.16084 26.8727 12.9602 24.8282 17.0961C24.3709 18.0204 23.6829 18.8112 22.8307 19.3919C21.9784 19.9726 20.9907 20.3235 19.9632 20.4108L20.02 20.4123Z" fill="#A1AAB2"/>
</g>
<defs>
<clipPath id="clip0_32_555">
<rect width="35" height="35" fill="white"/>
</clipPath>
</defs>
</svg>
