<svg width="35" height="35" viewBox="0 0 35 35" fill="none" xmlns="http://www.w3.org/2000/svg">
<path d="M17.4854 2.91669C9.43538 2.91669 2.91663 9.45002 2.91663 17.5C2.91663 25.55 9.43538 32.0834 17.4854 32.0834C25.55 32.0834 32.0833 25.55 32.0833 17.5C32.0833 9.45002 25.55 2.91669 17.4854 2.91669ZM27.5916 11.6667H23.2895C22.8324 9.8607 22.1566 8.11726 21.277 6.47502C23.9372 7.39086 26.1787 9.23378 27.5916 11.6667ZM17.5 5.89169C18.7104 7.64169 19.6583 9.58127 20.2854 11.6667H14.7145C15.3416 9.58127 16.2895 7.64169 17.5 5.89169ZM6.21246 20.4167C5.97913 19.4834 5.83329 18.5063 5.83329 17.5C5.83329 16.4938 5.97913 15.5167 6.21246 14.5834H11.1416C11.025 15.5459 10.9375 16.5084 10.9375 17.5C10.9375 18.4917 11.025 19.4542 11.1416 20.4167H6.21246ZM7.40829 23.3334H11.7104C12.177 25.1563 12.8479 26.9063 13.7229 28.525C11.0608 27.6127 8.81813 25.7688 7.40829 23.3334ZM11.7104 11.6667H7.40829C8.81813 9.2312 11.0608 7.38737 13.7229 6.47502C12.8433 8.11726 12.1675 9.8607 11.7104 11.6667ZM17.5 29.1084C16.2895 27.3584 15.3416 25.4188 14.7145 23.3334H20.2854C19.6583 25.4188 18.7104 27.3584 17.5 29.1084ZM20.9125 20.4167H14.0875C13.9562 19.4542 13.8541 18.4917 13.8541 17.5C13.8541 16.5084 13.9562 15.5313 14.0875 14.5834H20.9125C21.0437 15.5313 21.1458 16.5084 21.1458 17.5C21.1458 18.4917 21.0437 19.4542 20.9125 20.4167ZM21.277 28.525C22.152 26.9063 22.8229 25.1563 23.2895 23.3334H27.5916C26.1787 25.7663 23.9372 27.6092 21.277 28.525ZM23.8583 20.4167C23.975 19.4542 24.0625 18.4917 24.0625 17.5C24.0625 16.5084 23.975 15.5459 23.8583 14.5834H28.7875C29.0208 15.5167 29.1666 16.4938 29.1666 17.5C29.1666 18.5063 29.0208 19.4834 28.7875 20.4167H23.8583Z" fill="#A1AAB2"/>
</svg>
