<svg width="35" height="35" viewBox="0 0 35 35" fill="none" xmlns="http://www.w3.org/2000/svg">
<path d="M17.4999 24.7916C18.2735 24.7916 19.0153 24.4844 19.5623 23.9374C20.1093 23.3904 20.4166 22.6485 20.4166 21.875C20.4166 21.1014 20.1093 20.3596 19.5623 19.8126C19.0153 19.2656 18.2735 18.9583 17.4999 18.9583C16.7264 18.9583 15.9845 19.2656 15.4375 19.8126C14.8905 20.3596 14.5833 21.1014 14.5833 21.875C14.5833 22.6485 14.8905 23.3904 15.4375 23.9374C15.9845 24.4844 16.7264 24.7916 17.4999 24.7916ZM26.2499 11.6666C27.0235 11.6666 27.7653 11.9739 28.3123 12.5209C28.8593 13.0679 29.1666 13.8098 29.1666 14.5833V29.1666C29.1666 29.9402 28.8593 30.6821 28.3123 31.229C27.7653 31.776 27.0235 32.0833 26.2499 32.0833H8.74992C7.97637 32.0833 7.2345 31.776 6.68752 31.229C6.14054 30.6821 5.83325 29.9402 5.83325 29.1666V14.5833C5.83325 13.8098 6.14054 13.0679 6.68752 12.5209C7.2345 11.9739 7.97637 11.6666 8.74992 11.6666H10.2083V8.74998C10.2083 6.81611 10.9765 4.96145 12.3439 3.59399C13.7114 2.22654 15.566 1.45831 17.4999 1.45831C18.4575 1.45831 19.4057 1.64692 20.2903 2.01336C21.175 2.3798 21.9788 2.9169 22.6559 3.59399C23.333 4.27109 23.8701 5.07491 24.2365 5.95958C24.603 6.84425 24.7916 7.79242 24.7916 8.74998V11.6666H26.2499ZM17.4999 4.37498C16.3396 4.37498 15.2268 4.83592 14.4063 5.65639C13.5859 6.47686 13.1249 7.58966 13.1249 8.74998V11.6666H21.8749V8.74998C21.8749 7.58966 21.414 6.47686 20.5935 5.65639C19.773 4.83592 18.6602 4.37498 17.4999 4.37498Z" fill="#A1AAB2"/>
</svg>
